<svg width="234" height="67" viewBox="0 0 234 67" fill="none" xmlns="http://www.w3.org/2000/svg">
<path d="M26.2836 60.3565L62.3771 51.8138C63.9736 51.4365 65.3987 50.5108 66.4196 49.1879C67.4402 47.8654 67.9966 46.2237 67.9973 44.5322V43.3517C67.9976 42.2437 67.7594 41.1496 67.3004 40.1485C66.841 39.1475 66.1719 38.2643 65.3415 37.5629C64.5112 36.8619 63.5404 36.3602 62.4997 36.0945C61.4587 35.8285 60.3733 35.8051 59.3223 36.0259L24.6608 43.2903C23.6913 43.4936 22.6918 43.4893 21.7242 43.2777C20.7563 43.0662 19.8407 42.6519 19.0342 42.0602C18.2276 41.4687 17.5471 40.7123 17.0347 39.8383C16.522 38.9643 16.1885 37.991 16.0546 36.9784L16.0285 36.7771C15.7797 34.8971 16.2322 32.9893 17.2944 31.4415C18.3566 29.8933 19.9491 28.8208 21.7486 28.4414L62.4959 19.8373C63.9928 19.5213 64.9259 21.4625 63.7776 22.5048L24.9687 57.6986C23.7981 58.7524 24.7757 60.7129 26.2836 60.3565Z" fill="#4CB966"/>
<path d="M60.8145 17.4927C63.7237 17.4927 66.0818 15.0545 66.0818 12.0468C66.0818 9.03928 63.7237 6.60107 60.8145 6.60107C57.9053 6.60107 55.5471 9.03928 55.5471 12.0468C55.5471 15.0545 57.9053 17.4927 60.8145 17.4927Z" fill="#4CB966"/>
<path d="M89.0621 45.877C87.4787 45.877 86.0561 45.5958 84.7942 45.033C83.5546 44.4465 82.5793 43.6488 81.8684 42.6402C81.1568 41.6084 80.7894 40.4239 80.7667 39.0872H84.1056C84.2205 40.2361 84.6793 41.2097 85.4825 42.0071C86.3083 42.7811 87.5016 43.1679 89.0621 43.1679C90.5535 43.1679 91.7242 42.793 92.573 42.0424C93.4452 41.2685 93.8809 40.2836 93.8809 39.0872C93.8809 38.1492 93.6287 37.3868 93.1237 36.8006C92.6187 36.2141 91.9879 35.7685 91.2303 35.4636C90.4734 35.1586 89.4519 34.8305 88.1673 34.4787C86.5835 34.0566 85.3104 33.6341 84.3463 33.212C83.4055 32.7896 82.5908 32.1333 81.9026 31.242C81.2373 30.327 80.904 29.1075 80.904 27.583C80.904 26.2462 81.2373 25.0617 81.9026 24.0299C82.5679 22.9977 83.4971 22.2004 84.6904 21.6377C85.9067 21.0746 87.2951 20.7932 88.8555 20.7932C91.1045 20.7932 92.9405 21.3677 94.363 22.5173C95.8088 23.6663 96.6232 25.1908 96.8067 27.0907H93.3647C93.2498 26.1526 92.7684 25.3317 91.9189 24.6281C91.0697 23.9009 89.9457 23.5372 88.5455 23.5372C87.2376 23.5372 86.1711 23.889 85.3446 24.5926C84.5184 25.2731 84.1056 26.2344 84.1056 27.4776C84.1056 28.3689 84.3463 29.0957 84.8284 29.6589C85.3331 30.2216 85.9415 30.6556 86.6525 30.9606C87.3867 31.242 88.4083 31.5701 89.7162 31.9456C91.2993 32.391 92.573 32.8369 93.5368 33.2823C94.5006 33.7047 95.3268 34.3728 96.015 35.2877C96.7036 36.1791 97.0478 37.3987 97.0478 38.9463C97.0478 40.1427 96.7378 41.2685 96.1181 42.324C95.4988 43.3795 94.581 44.2353 93.3647 44.8921C92.1484 45.5489 90.7141 45.877 89.0621 45.877Z" fill="black"/>
<path d="M100.24 35.9055C100.24 33.9463 100.624 32.2317 101.392 30.7621C102.16 29.2694 103.21 28.1149 104.542 27.2986C105.897 26.4822 107.399 26.074 109.048 26.074C110.674 26.074 112.085 26.4351 113.283 27.1584C114.479 27.8817 115.372 28.7912 115.958 29.8874V26.3886H119.075V45.5617H115.958V41.9936C115.349 43.1128 114.434 44.0458 113.215 44.7924C112.017 45.5152 110.618 45.8769 109.014 45.8769C107.365 45.8769 105.875 45.4571 104.542 44.6175C103.21 43.7778 102.16 42.5995 101.392 41.0836C100.624 39.5674 100.24 37.8416 100.24 35.9055ZM115.958 35.9401C115.958 34.4942 115.676 33.2347 115.111 32.1616C114.547 31.0889 113.779 30.2725 112.808 29.7124C111.86 29.1293 110.809 28.8377 109.658 28.8377C108.505 28.8377 107.455 29.1176 106.507 29.6777C105.558 30.2372 104.802 31.0536 104.237 32.1268C103.673 33.1994 103.391 34.4592 103.391 35.9055C103.391 37.3749 103.673 38.6578 104.237 39.7542C104.802 40.8272 105.558 41.6549 106.507 42.2381C107.455 42.7982 108.505 43.0778 109.658 43.0778C110.809 43.0778 111.86 42.7982 112.808 42.2381C113.779 41.6549 114.547 40.8272 115.111 39.7542C115.676 38.6578 115.958 37.3867 115.958 35.9401Z" fill="black"/>
<path d="M127.218 29.5291C127.752 28.4357 128.508 27.5862 129.486 26.9816C130.486 26.3765 131.698 26.074 133.121 26.074V29.3546H132.321C128.919 29.3546 127.218 31.2857 127.218 35.1474V45.5469H124.183V26.4229H127.218V29.5291Z" fill="black"/>
<path d="M143.85 42.6128L149.621 26.4041H152.914L145.615 45.5469H142.017L134.718 26.4041H138.044L143.85 42.6128Z" fill="black"/>
<path d="M179.73 21.4531V45.5467H176.689V27.5809L169.004 45.5467H166.866L159.147 27.5463V45.5467H156.106V21.4531H159.381L167.934 41.3686L176.489 21.4531H179.73Z" fill="black"/>
<path d="M185.989 45.8768C185.4 45.8768 184.901 45.653 184.493 45.2061C184.084 44.7589 183.88 44.2127 183.88 43.5664C183.88 42.9202 184.084 42.374 184.493 41.9268C184.901 41.4799 185.4 41.2561 185.989 41.2561C186.556 41.2561 187.032 41.4799 187.418 41.9268C187.826 42.374 188.03 42.9202 188.03 43.5664C188.03 44.2127 187.826 44.7589 187.418 45.2061C187.032 45.653 186.556 45.8768 185.989 45.8768Z" fill="black"/>
<path d="M206.226 40.1577H196.011L194.129 45.5467H190.903L199.372 21.4531H202.9L211.334 45.5467H208.108L206.226 40.1577ZM205.353 37.5853L201.119 25.3471L196.885 37.5853H205.353Z" fill="black"/>
<path d="M218.038 21.123V45.5467H215.165V21.123H218.038Z" fill="black"/>
</svg>
